<svg width="17" height="11" viewBox="0 0 17 11" fill="none" xmlns="http://www.w3.org/2000/svg">
<path d="M16.9932 5.6491L17 5.7509C17 6.1306 16.7178 6.4444 16.3518 6.494L16.25 6.5009L3.554 6.5L6.7752 9.7194C7.0415 9.9856 7.0659 10.4023 6.8482 10.696L6.7756 10.7801C6.5095 11.0465 6.0928 11.0709 5.7991 10.8531L5.7149 10.7806L1.2149 6.2843C0.948599 6.0182 0.924198 5.6015 1.1419 5.3078L1.2145 5.2237L5.7145 0.719887C6.0073 0.426877 6.4821 0.426677 6.7752 0.719447C7.0415 0.985597 7.0659 1.40226 6.8482 1.69596L6.7756 1.78011L3.558 5L16.25 5.0009C16.6297 5.0009 16.9435 5.283 16.9932 5.6491L17 5.7509L16.9932 5.6491Z" fill="#222227"/>
</svg>
