<svg width="21" height="20" viewBox="0 0 21 20" fill="none" xmlns="http://www.w3.org/2000/svg">
<path d="M8.19897 0.885583C9.36967 -0.29369 11.2808 -0.29369 12.4615 0.876581L13.1919 1.60575C13.4721 1.88581 13.8523 2.04685 14.2526 2.04685H15.2832C16.9442 2.04685 18.295 3.39616 18.295 5.05655V6.08778C18.295 6.48688 18.4551 6.86696 18.7352 7.14703L19.4557 7.8672C20.026 8.42733 20.3362 9.1875 20.3362 9.98769C20.3462 10.7879 20.036 11.549 19.4757 12.1182L18.7352 12.8583C18.4551 13.1384 18.295 13.5185 18.295 13.9196V14.9488C18.295 16.6092 16.9442 17.9605 15.2832 17.9605H14.2526C13.8523 17.9605 13.4721 18.1196 13.1919 18.3996L12.4715 19.1198C11.8812 19.7109 11.1107 20 10.3402 20C9.56979 20 8.79933 19.7109 8.20898 19.1308L7.47854 18.3996C7.19838 18.1196 6.81815 17.9605 6.41792 17.9605H5.3873C3.72632 17.9605 2.37552 16.6092 2.37552 14.9488V13.9196C2.37552 13.5185 2.21542 13.1384 1.93525 12.8483L1.21483 12.1382C0.0441324 10.9689 0.0341265 9.05747 1.20482 7.8782L1.93525 7.14703C2.21542 6.86696 2.37552 6.48688 2.37552 6.07678V5.05655C2.37552 3.39616 3.72632 2.04685 5.3873 2.04685H6.41792C6.81815 2.04685 7.19838 1.88581 7.47854 1.60575L8.19897 0.885583ZM12.9118 11.6981C12.4215 11.6981 12.0312 12.0892 12.0312 12.5683C12.0312 13.0584 12.4215 13.4485 12.9118 13.4485C13.3921 13.4485 13.7823 13.0584 13.7823 12.5683C13.7823 12.0892 13.3921 11.6981 12.9118 11.6981ZM13.5221 6.80695C13.1819 6.46787 12.6316 6.46787 12.2914 6.80695L7.14835 11.9481C6.80815 12.2882 6.80815 12.8483 7.14835 13.1884C7.30844 13.3585 7.52857 13.4485 7.75871 13.4485C7.99885 13.4485 8.21898 13.3585 8.37908 13.1884L13.5221 8.04824C13.8623 7.70816 13.8623 7.14703 13.5221 6.80695ZM7.76872 6.55689C7.28843 6.55689 6.88819 6.94698 6.88819 7.42709C6.88819 7.91821 7.28843 8.3073 7.76872 8.3073C8.249 8.3073 8.63923 7.91821 8.63923 7.42709C8.63923 6.94698 8.249 6.55689 7.76872 6.55689Z" fill="#BFBFBF"/>
</svg>
