<svg width="16" height="15" viewBox="0 0 16 15" fill="none" xmlns="http://www.w3.org/2000/svg">
<path d="M13.2489 8.81565C14.7689 8.81565 16 10.026 16 11.5194C16 13.0118 14.7689 14.2222 13.2489 14.2222C11.7298 14.2222 10.4978 13.0118 10.4978 11.5194C10.4978 10.026 11.7298 8.81565 13.2489 8.81565ZM6.46663 10.3664C7.1324 10.3664 7.67285 10.8973 7.67285 11.5514C7.67285 12.2046 7.1324 12.7365 6.46663 12.7365H1.20622C0.540441 12.7365 0 12.2046 0 11.5514C0 10.8973 0.540441 10.3664 1.20622 10.3664H6.46663ZM2.7511 0C4.27109 0 5.50219 1.21039 5.50219 2.70285C5.50219 4.19618 4.27109 5.40657 2.7511 5.40657C1.23199 5.40657 0 4.19618 0 2.70285C0 1.21039 1.23199 0 2.7511 0ZM14.7947 1.51866C15.4596 1.51866 16 2.04962 16 2.70285C16 3.35695 15.4596 3.88791 14.7947 3.88791H9.53426C8.86848 3.88791 8.32804 3.35695 8.32804 2.70285C8.32804 2.04962 8.86848 1.51866 9.53426 1.51866H14.7947Z" fill="white"/>
</svg>
