<svg width="16" height="19" viewBox="0 0 16 19" fill="none" xmlns="http://www.w3.org/2000/svg">
<path d="M6.08299 16.2145C6.5535 16.115 9.4205 16.115 9.891 16.2145C10.2932 16.3074 10.7282 16.5245 10.7282 16.9984C10.7048 17.4496 10.4401 17.8497 10.0743 18.1037C9.60009 18.4734 9.04353 18.7075 8.46171 18.7919C8.13994 18.8336 7.82377 18.8345 7.51322 18.7919C6.93046 18.7075 6.3739 18.4734 5.90059 18.1028C5.53391 17.8497 5.2692 17.4496 5.24581 16.9984C5.24581 16.5245 5.68077 16.3074 6.08299 16.2145ZM8.04256 0C10.0004 0 12.0002 0.928959 13.1882 2.47027C13.959 3.46274 14.3125 4.45426 14.3125 5.99558V6.39655C14.3125 7.5786 14.625 8.27532 15.3125 9.0782C15.8335 9.66971 16 10.429 16 11.2527C16 12.0755 15.7297 12.8566 15.1881 13.4908C14.479 14.251 13.4791 14.7363 12.4586 14.8207C10.9797 14.9468 9.49991 15.0529 8.00047 15.0529C6.50009 15.0529 5.02122 14.9894 3.54236 14.8207C2.5209 14.7363 1.52096 14.251 0.812862 13.4908C0.271266 12.8566 0 12.0755 0 11.2527C0 10.429 0.167436 9.66971 0.687518 9.0782C1.39655 8.27532 1.6884 7.5786 1.6884 6.39655V5.99558C1.6884 4.41256 2.08313 3.37743 2.896 2.36411C4.10453 0.886303 6.04174 0 7.95837 0H8.04256Z" fill="white"/>
</svg>
